<svg width="18" height="16" viewBox="0 0 18 16" fill="none" xmlns="http://www.w3.org/2000/svg">
<path d="M1.5 4.66634V11.9997C1.5 12.9331 1.5 13.3998 1.68166 13.7563C1.84144 14.0699 2.09641 14.3249 2.41002 14.4847C2.76654 14.6663 3.23325 14.6663 4.16667 14.6663H13.8333C14.7668 14.6663 15.2335 14.6663 15.59 14.4847C15.9036 14.3249 16.1586 14.0699 16.3183 13.7563C16.5 13.3998 16.5 12.9331 16.5 11.9997V6.91634C16.5 6.37377 16.5 6.10248 16.4374 5.88061C16.28 5.3225 15.8438 4.88632 15.2857 4.72892C15.0639 4.66634 14.7926 4.66634 14.25 4.66634M1.5 4.66634V3.99967C1.5 3.06625 1.5 2.59954 1.68166 2.24302C1.84144 1.92942 2.09641 1.67445 2.41002 1.51466C2.76654 1.33301 3.23325 1.33301 4.16667 1.33301H11.5833C12.5168 1.33301 12.9835 1.33301 13.34 1.51466C13.6536 1.67445 13.9086 1.92942 14.0683 2.24302C14.25 2.59954 14.25 3.06625 14.25 3.99967V4.66634M1.5 4.66634H14.25M7.33333 11.333V7.99967M9 9.6668L5.66667 9.66634M16.5 7.99967H14.8333C13.9129 7.99967 13.1667 8.74587 13.1667 9.66634C13.1667 10.5868 13.9129 11.333 14.8333 11.333H16.5V7.99967Z" stroke="#667085" stroke-width="2" stroke-linecap="round" stroke-linejoin="round"/>
</svg>
