<svg width="18" height="12" viewBox="0 0 18 12" fill="none" xmlns="http://www.w3.org/2000/svg">
<path d="M14.1476 1C13.8016 1.30539 13.5833 1.75221 13.5833 2.25C13.5833 3.17047 14.3295 3.91667 15.25 3.91667C15.3939 3.91667 16.0833 3.91667 16.5 3.5M4 11C4.65087 10.3491 4.65087 9.15087 4 8.5C3.34913 7.84913 2.15087 7.84913 1.5 8.5M4 1C4.65087 1.65087 4.65087 2.84913 4 3.5C3.34913 4.15087 2.15087 4.15087 1.5 3.5M14 11C13.3491 10.3491 13.3491 9.15087 14 8.5C14.6509 7.84913 15.8491 7.84913 16.5 8.5M4.16667 11H13.8333C14.7668 11 15.2335 11 15.59 10.8183C15.9036 10.6586 16.1586 10.4036 16.3183 10.09C16.5 9.73346 16.5 9.26675 16.5 8.33333V3.66667C16.5 2.73325 16.5 2.26654 16.3183 1.91002C16.1586 1.59641 15.9036 1.34144 15.59 1.18166C15.2335 1 14.7668 1 13.8333 1H4.16667C3.23325 1 2.76654 1 2.41002 1.18166C2.09641 1.34144 1.84144 1.59641 1.68166 1.91002C1.5 2.26654 1.5 2.73325 1.5 3.66667V8.33333C1.5 9.26675 1.5 9.73346 1.68166 10.09C1.84144 10.4036 2.09641 10.6586 2.41002 10.8183C2.76654 11 3.23325 11 4.16667 11ZM10.6667 6C10.6667 6.92047 9.92047 7.66667 9 7.66667C8.07953 7.66667 7.33333 6.92047 7.33333 6C7.33333 5.07953 8.07953 4.33333 9 4.33333C9.92047 4.33333 10.6667 5.07953 10.6667 6Z" stroke="#5C6881" stroke-width="1.5" stroke-linecap="round" stroke-linejoin="round"/>
</svg>
