<svg width="18" height="15" viewBox="0 0 18 15" fill="none" xmlns="http://www.w3.org/2000/svg">
<path fill-rule="evenodd" clip-rule="evenodd" d="M4.19412 3.71509e-07H11.6632C12.1076 -9.16523e-06 12.48 -1.70935e-05 12.7846 0.0248664C13.1027 0.0508576 13.4036 0.107204 13.6887 0.252502C14.1247 0.474609 14.4791 0.829014 14.7012 1.26492C14.8465 1.55009 14.9028 1.85096 14.9288 2.16907C14.9537 2.47363 14.9537 2.84606 14.9537 3.29046V3.34096C15.1609 3.35064 15.3454 3.37226 15.5158 3.42031C16.2916 3.6391 16.8979 4.24539 17.1167 5.02116C17.2043 5.33185 17.204 5.68962 17.2037 6.14609C17.2037 6.17478 17.2037 6.20385 17.2037 6.23333V11.3429C17.2037 11.7873 17.2037 12.1597 17.1788 12.4643C17.1528 12.7824 17.0965 13.0832 16.9512 13.3684C16.7291 13.8043 16.3747 14.1587 15.9387 14.3808C15.6536 14.5261 15.3527 14.5825 15.0346 14.6085C14.73 14.6334 14.3576 14.6333 13.9132 14.6333H4.19412C3.74972 14.6333 3.3773 14.6334 3.07274 14.6085C2.75462 14.5825 2.45375 14.5261 2.16859 14.3808C1.73268 14.1587 1.37827 13.8043 1.15617 13.3684C1.01087 13.0832 0.954521 12.7824 0.92853 12.4643C0.903647 12.1597 0.903654 11.7873 0.903664 11.3429V3.29046C0.903654 2.84606 0.903647 2.47363 0.92853 2.16907C0.954521 1.85096 1.01087 1.55009 1.15617 1.26492C1.37827 0.829014 1.73268 0.474609 2.16859 0.252502C2.45375 0.107204 2.75462 0.0508576 3.07274 0.0248664C3.3773 -1.70935e-05 3.74972 -9.16523e-06 4.19412 3.71509e-07ZM15.9037 10V7.96667H14.887C14.3255 7.96667 13.8703 8.42184 13.8703 8.98333C13.8703 9.54482 14.3255 10 14.887 10H15.9037ZM15.9037 6.66667H14.887C13.6075 6.66667 12.5703 7.70387 12.5703 8.98333C12.5703 10.2628 13.6075 11.3 14.887 11.3H15.9037V11.3167C15.9037 11.7941 15.9032 12.1131 15.8831 12.3584C15.8637 12.5961 15.8292 12.7069 15.7929 12.7782C15.6954 12.9695 15.5399 13.1251 15.3486 13.2225C15.2772 13.2589 15.1665 13.2934 14.9287 13.3128C14.6834 13.3328 14.3644 13.3333 13.887 13.3333H4.22033C3.74289 13.3333 3.42391 13.3328 3.1786 13.3128C2.94087 13.2934 2.83013 13.2589 2.75877 13.2225C2.56748 13.1251 2.41195 12.9695 2.31447 12.7782C2.27812 12.7069 2.24364 12.5961 2.22421 12.3584C2.20417 12.1131 2.20366 11.7941 2.20366 11.3167V4.63333H14.3037C14.8903 4.63333 15.0494 4.63949 15.163 4.6715C15.5034 4.76752 15.7695 5.03359 15.8655 5.37404C15.8975 5.48757 15.9037 5.64674 15.9037 6.23333V6.66667ZM2.20366 3.33333H13.6537V3.31667C13.6537 2.83923 13.6532 2.52025 13.6331 2.27493C13.6137 2.03721 13.5792 1.92647 13.5429 1.85511C13.4454 1.66381 13.2899 1.50828 13.0986 1.41081C13.0272 1.37445 12.9165 1.33997 12.6787 1.32055C12.4334 1.30051 12.1144 1.3 11.637 1.3H4.22033C3.74289 1.3 3.42391 1.30051 3.1786 1.32055C2.94087 1.33997 2.83013 1.37445 2.75877 1.41081C2.56748 1.50828 2.41195 1.66381 2.31447 1.85511C2.27812 1.92647 2.24364 2.03721 2.22421 2.27493C2.20417 2.52025 2.20366 2.83923 2.20366 3.31667V3.33333ZM7.387 6.66667C7.74598 6.66667 8.037 6.95768 8.037 7.31667V8.33365L9.05375 8.33379C9.41274 8.33384 9.70371 8.62489 9.70366 8.98388C9.70362 9.34286 9.41256 9.63384 9.05358 9.63379L8.037 9.63365V10.65C8.037 11.009 7.74598 11.3 7.387 11.3C7.02801 11.3 6.737 11.009 6.737 10.65V9.63347L5.72024 9.63333C5.36126 9.63328 5.07028 9.34223 5.07033 8.98324C5.07038 8.62426 5.36143 8.33328 5.72042 8.33333L6.737 8.33347V7.31667C6.737 6.95768 7.02801 6.66667 7.387 6.66667Z" fill="#5C6881"/>
</svg>
