<svg width="16" height="11" viewBox="0 0 16 11" fill="none" xmlns="http://www.w3.org/2000/svg">
<path fill-rule="evenodd" clip-rule="evenodd" d="M13.2435 0.000324446C13.2328 -7.21442e-05 13.222 -0.000105385 13.2113 0.000226004C13.1281 3.71054e-06 13.0415 4.87754e-06 12.9515 6.04454e-06H3.85588C3.81119 5.44222e-06 3.76737 4.91518e-06 3.72439 3.16055e-05C3.72089 -4.64666e-06 3.71739 -2.31266e-06 3.71389 3.86828e-05C3.35715 0.000299713 3.0592 0.00260754 2.81171 0.0227151C2.52226 0.0462313 2.26047 0.0964076 2.0158 0.220373C1.63309 0.414278 1.32144 0.723942 1.12597 1.10543C1.00084 1.34963 0.950225 1.61094 0.926528 1.89935C0.906279 2.14578 0.903959 2.44236 0.903696 2.79706C0.903656 2.80056 0.903653 2.80405 0.903689 2.80755C0.903663 2.85019 0.903663 2.89367 0.903664 2.938V7.32516C0.903663 7.36949 0.903663 7.41298 0.903689 7.45562C0.903653 7.45912 0.903656 7.46261 0.903696 7.46611C0.903959 7.82081 0.906279 8.11739 0.926528 8.36382C0.950225 8.65223 1.00084 8.91353 1.12597 9.15774C1.32144 9.53923 1.63309 9.84889 2.0158 10.0428C2.26047 10.1668 2.52226 10.2169 2.81171 10.2405C3.05921 10.2606 3.35716 10.2629 3.7139 10.2631C3.71739 10.2632 3.72089 10.2632 3.72438 10.2631C3.76737 10.2632 3.8112 10.2632 3.8559 10.2632H12.9514C12.9961 10.2632 13.04 10.2632 13.0829 10.2631C13.0864 10.2632 13.0899 10.2632 13.0934 10.2631C13.4502 10.2629 13.7481 10.2606 13.9956 10.2405C14.2851 10.2169 14.5469 10.1668 14.7915 10.0428C15.1742 9.84889 15.4859 9.53923 15.6814 9.15774C15.8065 8.91353 15.8571 8.65223 15.8808 8.36382C15.901 8.1174 15.9034 7.82084 15.9036 7.46617C15.9037 7.46263 15.9037 7.4591 15.9036 7.45556C15.9037 7.41295 15.9037 7.3695 15.9037 7.32521V2.93796C15.9037 2.5201 15.9037 2.17773 15.8808 1.89935C15.8571 1.61094 15.8065 1.34963 15.6814 1.10543C15.4859 0.723943 15.1742 0.414278 14.7915 0.220373C14.5469 0.0964075 14.2851 0.0462313 13.9956 0.0227151C13.7837 0.00549514 13.5347 0.00132968 13.2435 0.000324446ZM14.9563 6.6402V3.57963C14.9189 3.58948 14.8825 3.59805 14.8476 3.60551C14.5715 3.66449 14.3366 3.66448 14.2602 3.66448H14.2589C13.1375 3.66448 12.2238 2.75978 12.2238 1.63816C12.2238 1.39554 12.2668 1.1629 12.3453 0.947375H4.54307C4.78347 1.69382 4.62026 2.5749 4.05345 3.13853C3.64586 3.54383 3.08548 3.73108 2.5484 3.73108C2.31554 3.73108 2.0783 3.69588 1.85103 3.62297V6.6402C2.0783 6.56729 2.31554 6.53209 2.5484 6.53209C3.08548 6.53209 3.64586 6.71933 4.05345 7.12464C4.62026 7.68827 4.78347 8.56935 4.54307 9.3158H12.2643C12.0239 8.56935 12.1871 7.68827 12.7539 7.12464C13.1615 6.71933 13.7218 6.53209 14.2589 6.53209C14.4918 6.53209 14.729 6.56729 14.9563 6.6402ZM13.3068 9.31514C13.5592 9.31376 13.7554 9.30948 13.9189 9.2962C14.1502 9.27741 14.274 9.24297 14.3634 9.19771C14.5682 9.0939 14.7343 8.92852 14.8382 8.72572C14.8833 8.63779 14.9178 8.51564 14.9366 8.28624C14.9499 8.12461 14.9542 7.93066 14.9556 7.6813C14.7643 7.5518 14.5189 7.47946 14.2589 7.47946C13.9298 7.47946 13.624 7.59539 13.4219 7.79642C13.041 8.17514 13.0027 8.87227 13.3068 9.31514ZM3.50055 9.31514C3.80468 8.87227 3.76631 8.17514 3.38545 7.79642C3.18329 7.59539 2.87749 7.47946 2.5484 7.47946C2.28843 7.47946 2.043 7.5518 1.85171 7.6813C1.85311 7.93066 1.85743 8.12461 1.87071 8.28624C1.88956 8.51564 1.92404 8.63779 1.96909 8.72572C2.07301 8.92852 2.23909 9.0939 2.44398 9.19771C2.53331 9.24297 2.65714 9.27741 2.88842 9.2962C3.05192 9.30948 3.24818 9.31376 3.50055 9.31514ZM1.85171 2.58187C2.043 2.71136 2.28843 2.78371 2.5484 2.78371C2.87749 2.78371 3.18329 2.66778 3.38545 2.46675C3.76631 2.08803 3.80468 1.3909 3.50055 0.948027C3.24818 0.949406 3.05192 0.953689 2.88842 0.966972C2.65714 0.985763 2.53331 1.0202 2.44398 1.06546C2.23909 1.16927 2.07301 1.33465 1.96909 1.53745C1.92404 1.62538 1.88956 1.74753 1.87071 1.97692C1.85743 2.13856 1.85311 2.33251 1.85171 2.58187ZM14.9556 2.57011C14.8675 2.61892 14.763 2.65483 14.6496 2.67904C14.473 2.71679 14.3185 2.71711 14.2589 2.71711C13.6557 2.71711 13.1712 2.23154 13.1712 1.63816C13.1712 1.37641 13.2648 1.13635 13.422 0.948919C13.6202 0.950979 13.7812 0.955782 13.9189 0.966972C14.1502 0.985763 14.274 1.0202 14.3634 1.06546C14.5682 1.16927 14.7343 1.33465 14.8382 1.53745C14.8833 1.62538 14.9178 1.74753 14.9366 1.97692C14.9497 2.13601 14.9541 2.3264 14.9556 2.57011ZM8.40366 4.05264C7.80041 4.05264 7.31595 4.53821 7.31595 5.13158C7.31595 5.72496 7.80041 6.21053 8.40366 6.21053C9.00691 6.21053 9.49138 5.72496 9.49138 5.13158C9.49138 4.53821 9.00691 4.05264 8.40366 4.05264ZM6.36858 5.13158C6.36858 4.00997 7.28224 3.10527 8.40366 3.10527C9.52509 3.10527 10.4388 4.00997 10.4388 5.13158C10.4388 6.2532 9.52509 7.1579 8.40366 7.1579C7.28224 7.1579 6.36858 6.2532 6.36858 5.13158Z" fill="#5C6881"/>
</svg>
