<svg width="17" height="17" viewBox="0 0 17 17" fill="none" xmlns="http://www.w3.org/2000/svg">
<path fill-rule="evenodd" clip-rule="evenodd" d="M13.1974 3.30632C10.5223 0.631227 6.1851 0.631227 3.51001 3.30632C1.83108 4.98525 1.20521 7.31876 1.63477 9.4877C1.70451 9.83984 1.47558 10.1819 1.12344 10.2516C0.771291 10.3213 0.429284 10.0924 0.359541 9.74026C-0.150702 7.16393 0.592252 4.3856 2.59077 2.38708C5.77354 -0.795693 10.9338 -0.795693 14.1166 2.38708C17.2994 5.56985 17.2994 10.7301 14.1166 13.9129C12.1181 15.9114 9.33976 16.6544 6.76343 16.1441C6.41129 16.0744 6.18235 15.7324 6.2521 15.3803C6.32184 15.0281 6.66385 14.7992 7.01599 14.8689C9.18493 15.2985 11.5184 14.6726 13.1974 12.9937C15.8725 10.3186 15.8725 5.98141 13.1974 3.30632ZM4.65631 6.48333C4.65631 6.12435 4.94733 5.83333 5.30631 5.83333H10.0204C10.3793 5.83333 10.6704 6.12435 10.6704 6.48333V11.1974C10.6704 11.5564 10.3793 11.8474 10.0204 11.8474C9.66137 11.8474 9.37036 11.5564 9.37036 11.1974V8.05257L3.51001 13.9129C3.25617 14.1668 2.84461 14.1668 2.59077 13.9129C2.33693 13.6591 2.33693 13.2475 2.59077 12.9937L8.45112 7.13333H5.30631C4.94733 7.13333 4.65631 6.84232 4.65631 6.48333Z" fill="#5C6881"/>
</svg>
